<?xml version="1.0" encoding="UTF-8" standalone="no"?>
<svg width="30px" height="30px" viewBox="0 0 30 30" version="1.1" xmlns="http://www.w3.org/2000/svg" xmlns:xlink="http://www.w3.org/1999/xlink" xmlns:sketch="http://www.bohemiancoding.com/sketch/ns">
    <!-- Generator: Sketch 3.4.4 (17249) - http://www.bohemiancoding.com/sketch -->
    <title>Slice 1</title>
    <desc>Created with Sketch.</desc>
    <defs></defs>
    <g id="Page-1" stroke="none" stroke-width="1" fill="none" fill-rule="evenodd" sketch:type="MSPage">
        <g id="复制链接-+-iconfont-link" sketch:type="MSLayerGroup" transform="translate(3.000000, 3.000000)">
            <path d="M0,3.99005301 C0,1.78640758 1.78429328,0 3.99005301,0 L20.009947,0 C22.2135924,0 24,1.78429328 24,3.99005301 L24,20.009947 C24,22.2135924 22.2157067,24 20.009947,24 L3.99005301,24 C1.78640758,24 0,22.2157067 0,20.009947 L0,3.99005301 Z M1,4.00138694 C1,2.3437667 2.34308127,1 4.00138694,1 L19.9986131,1 C21.6562333,1 23,2.34308127 23,4.00138694 L23,19.9986131 C23,21.6562333 21.6569187,23 19.9986131,23 L4.00138694,23 C2.3437667,23 1,21.6569187 1,19.9986131 L1,4.00138694 Z" id="Rectangle-237" fill="#D8D8D8" sketch:type="MSShapeGroup"></path>
            <path d="M5.219902,12.2066256 C5.219902,13.5751742 6.33163774,14.6867273 7.70000374,14.6867273 L10.9002924,14.6867273 L10.9002924,16.2068174 L7.70000374,16.2068174 C5.49173026,16.2068174 3.69962927,14.4148077 3.69962927,12.2066256 C3.69962927,9.99888182 5.49173024,8.20643378 7.70000374,8.20643378 L10.9002924,8.20643378 L10.9002924,9.72661516 L7.70000374,9.72661516 C6.33163774,9.72661516 5.219902,10.8391546 5.219902,12.2066256 L5.219902,12.2066256 Z M8.50001652,11.4070694 L14.8999544,11.4070694 L14.8999544,13.0072594 L8.50001652,13.0072594 L8.50001652,11.4070694 L8.50001652,11.4070694 Z M15.6996019,16.2068174 L12.4996786,16.2068174 L12.4996786,14.6867273 L15.6996019,14.6867273 C17.0673468,14.6867273 18.1793565,13.5751743 18.1793565,12.2066256 C18.1793565,10.8391546 17.0673468,9.72661516 15.6996019,9.72661516 L12.4996786,9.72661516 L12.4996786,8.20643378 L15.6996019,8.20643378 C17.9078754,8.20643378 19.6996293,9.99888182 19.6996293,12.2066256 C19.6996293,14.414826 17.9078754,16.2068174 15.6996019,16.2068174 L15.6996019,16.2068174 Z" id="Shape" fill="#A7A7A7" sketch:type="MSShapeGroup" transform="translate(11.699629, 12.206626) scale(1, -1) rotate(-320.000000) translate(-11.699629, -12.206626) "></path>
        </g>
    </g>
</svg>