<?xml version="1.0" encoding="UTF-8" standalone="no"?>
<svg width="30px" height="30px" viewBox="0 0 30 30" version="1.1" xmlns="http://www.w3.org/2000/svg" xmlns:xlink="http://www.w3.org/1999/xlink" xmlns:sketch="http://www.bohemiancoding.com/sketch/ns">
    <!-- Generator: Sketch 3.4.2 (15857) - http://www.bohemiancoding.com/sketch -->
    <title>Slice 5</title>
    <desc>Created with Sketch.</desc>
    <defs>
        <linearGradient x1="50%" y1="0%" x2="50%" y2="100%" id="linearGradient-1">
            <stop stop-color="#07D814" offset="0%"></stop>
            <stop stop-color="#05AA10" offset="100%"></stop>
        </linearGradient>
    </defs>
    <g id="Page-1" stroke="none" stroke-width="1" fill="none" fill-rule="evenodd" sketch:type="MSPage">
        <rect id="Rectangle-54" fill="url(#linearGradient-1)" sketch:type="MSShapeGroup" x="3" y="3" width="24" height="24" rx="2"></rect>
        <g id="Fill-1-+-Fill-3" sketch:type="MSLayerGroup" transform="translate(8.000000, 8.000000)" fill="#FFFFFF">
            <path d="M0.351537572,0 C0.15934104,0 0,0.117166667 0,0.359985352 L0,1.10241667 L0,1.13191667 C0,1.3385 0.171965318,1.5 0.312289017,1.5 L13.6282312,1.5 C13.8432486,1.5 14,1.31775 14,1.11983333 L14,0.34025 C14,0.09725 13.8146012,0 13.6291214,0 L0.351537572,0 Z" id="Fill-1" sketch:type="MSShapeGroup"></path>
            <path d="M3.59248,7.90150493 C3.55088,7.90150493 3.52,7.85488354 3.52,7.78113989 L3.52,4.51290824 C3.52,4.47150267 3.53664,4.45104061 3.57832,4.45104061 L10.42328,4.45104061 C10.50664,4.45104061 10.56,4.48113187 10.56,4.54035147 L10.56,7.73604313 C10.56,7.82856372 10.49248,7.90150493 10.40504,7.90150493 L3.59248,7.90150493 Z M10.52,12.6358629 C10.43496,12.6358629 10.43168,12.5224791 10.43168,12.5224791 L11.36072,9.41120343 C11.36072,9.41120343 11.38,9.34588534 11.46,9.34588534 L12.37104,9.34588534 L12.426,9.34588534 C12.596,9.34588534 12.8,9.17938038 12.8,8.98960484 L12.8,8.93199011 L12.8,3.36510727 L12.8,3.30933814 C12.8,3.14708607 12.64728,3 12.47728,3 C12.46584,3 12.41528,3.0066602 12.41528,3.0066602 L1.62328,3.0066602 L1.5796,3.0066602 C1.40328,3.0066602 1.28,3.16096817 1.28,3.32939898 L1.28,3.36574922 L1.28,8.93816885 L1.28,8.97588322 C1.28,9.15466542 1.42,9.34588534 1.61448,9.34588534 L9.21,9.34588534 C9.31496,9.34588534 9.28712,9.43696155 9.28712,9.43696155 L8.176,12.5492001 C8.176,12.5492001 8.13664,12.6358629 8.05328,12.6358629 L5.73664,12.6358629 C5.65496,12.6358629 5.628,12.5550579 5.628,12.5550579 L4.74664,10.3137807 C4.74664,10.3137807 4.68664,10.0680755 4.35832,10.0680755 L2.8356,10.0680755 C2.70832,10.0680755 2.71664,10.1920515 2.71664,10.1920515 L3.37656,12.527053 C3.37656,12.527053 3.39664,12.6358629 3.28328,12.6358629 L0.36128,12.6358629 C0.10328,12.6358629 0,12.8038925 0,12.9324424 L0,12.9825945 L0,13.6057644 L0,13.6433985 C0,13.7944165 0.10664,14 0.32368,14 L13.61648,14 C13.87088,14 14,13.8154403 14,13.6628174 L14,13.6293559 L14,12.9556327 C14,12.7839922 13.86,12.6358629 13.64728,12.6358629 L10.52,12.6358629 Z" id="Fill-3" sketch:type="MSShapeGroup"></path>
        </g>
    </g>
</svg>