<?xml version="1.0" encoding="UTF-8" standalone="no"?>
<svg width="30px" height="30px" viewBox="0 0 30 30" version="1.1" xmlns="http://www.w3.org/2000/svg" xmlns:xlink="http://www.w3.org/1999/xlink" xmlns:sketch="http://www.bohemiancoding.com/sketch/ns">
    <!-- Generator: Sketch 3.4.2 (15857) - http://www.bohemiancoding.com/sketch -->
    <title>Slice 3</title>
    <desc>Created with Sketch.</desc>
    <defs></defs>
    <g id="Page-1" stroke="none" stroke-width="1" fill="none" fill-rule="evenodd" sketch:type="MSPage">
        <g id="QQ好友-+-Rectangle-41-Copy-2-+-CN_tencent_QQ-Copy" sketch:type="MSLayerGroup" transform="translate(3.000000, 3.000000)">
            <g id="Rectangle-41-Copy-2-+-CN_tencent_QQ" sketch:type="MSShapeGroup">
                <rect id="Rectangle-41-Copy-2" fill="#3E6DBB" x="0" y="0" width="24" height="24" rx="4"></rect>
                <g id="CN_tencent_QQ" transform="translate(5.000000, 4.000000)" fill="#FFFFFF">
                    <path d="M13.5186897,10.1762903 C13.2058621,8.40725806 11.8917931,7.2483871 11.8917931,7.2483871 C12.0795862,5.64241935 11.3911724,5.35741935 11.3911724,5.35741935 C11.2463448,0.388548387 6.85613793,0.47516129 6.76344828,0.477580645 C6.67124138,0.47516129 2.28006897,0.388548387 2.1362069,5.35741935 C2.1362069,5.35741935 1.4477931,5.64241935 1.63558621,7.2483871 C1.63558621,7.2483871 0.321517241,8.40725806 0.00868965517,10.1762903 C0.00868965517,10.1762903 -0.158344828,13.1651613 1.51055172,10.5420968 C1.51055172,10.5420968 1.88565517,11.5383871 2.57406897,12.4330645 C2.57406897,12.4330645 1.34351724,12.84 1.4477931,13.8972581 C1.4477931,13.8972581 1.4057931,15.0759677 4.07544828,14.9951613 C4.07544828,14.9951613 5.95241379,14.8529032 6.5157931,14.0801613 L6.76151724,14.0801613 L6.76586207,14.0801613 L7.01158621,14.0801613 C7.57496552,14.8529032 9.45193103,14.9951613 9.45193103,14.9951613 C12.1206207,15.0759677 12.0795862,13.8972581 12.0795862,13.8972581 C12.1833793,12.84 10.9533103,12.4330645 10.9533103,12.4330645 C11.6417241,11.5383871 12.0168276,10.5420968 12.0168276,10.5420968 C13.6847586,13.1651613 13.5186897,10.1762903 13.5186897,10.1762903 L13.5186897,10.1762903 Z" id="Shape"></path>
                </g>
            </g>
        </g>
    </g>
</svg>