<?xml version="1.0" encoding="UTF-8" standalone="no"?>
<svg width="30px" height="30px" viewBox="0 0 30 30" version="1.1" xmlns="http://www.w3.org/2000/svg" xmlns:xlink="http://www.w3.org/1999/xlink" xmlns:sketch="http://www.bohemiancoding.com/sketch/ns">
    <!-- Generator: Sketch 3.4.2 (15857) - http://www.bohemiancoding.com/sketch -->
    <title>Slice 2</title>
    <desc>Created with Sketch.</desc>
    <defs></defs>
    <g id="Page-1" stroke="none" stroke-width="1" fill="none" fill-rule="evenodd" sketch:type="MSPage">
        <g id="新浪微博-+-Rectangle-41-+-CN_sina_weibo-Copy" sketch:type="MSLayerGroup" transform="translate(3.000000, 3.000000)">
            <g id="Rectangle-41-+-CN_sina_weibo" sketch:type="MSShapeGroup">
                <rect id="Rectangle-41" fill="#F94747" x="0" y="0" width="24" height="24" rx="4"></rect>
                <g id="CN_sina_weibo" transform="translate(3.000000, 5.000000)" fill="#FFFFFF">
                    <path d="M17.3256923,6.372 L17.3256923,6.37476923 C17.214,6.71815385 16.8452308,6.90646154 16.5018462,6.79523077 C16.1575385,6.684 15.9692308,6.31523077 16.0804615,5.97092308 L16.08,5.97092308 C16.4215385,4.91353846 16.2050769,3.70753846 15.408,2.82323077 C14.6104615,1.93892308 13.4344615,1.60153846 12.3475385,1.83230769 C11.994,1.90753846 11.6464615,1.68184615 11.5712308,1.32830769 C11.4955385,0.975692308 11.7207692,0.627692308 12.0743077,0.551538462 L12.0747692,0.551538462 C13.6024615,0.226615385 15.2575385,0.701076923 16.3795385,1.94630769 C17.502,3.18969231 17.8047692,4.88492308 17.3256923,6.372 L17.3256923,6.372 Z M12.7943077,3.92584615 L12.7943077,3.92538462 C12.4910769,3.99138462 12.1915385,3.79661538 12.1264615,3.49292308 C12.0613846,3.18830769 12.2552308,2.88876923 12.5593846,2.82415385 C13.3038462,2.66538462 14.1101538,2.89569231 14.6566154,3.50215385 C15.2035385,4.10815385 15.3503077,4.93384615 15.1163077,5.65846154 C15.0207692,5.95476923 14.7032308,6.11630769 14.4073846,6.02169231 C14.1110769,5.92569231 13.9495385,5.60769231 14.0450769,5.31184615 L14.0441538,5.31184615 C14.1590769,4.95738462 14.0870769,4.55353846 13.8198462,4.25723077 C13.5530769,3.96138462 13.1584615,3.84923077 12.7943077,3.92584615 L12.7943077,3.92584615 Z M13.02,4.98 C13.3158462,5.40276923 13.2872308,5.99538462 13.0144615,6.68215385 C12.8884615,6.99830769 13.0536923,7.04723077 13.2941538,7.11969231 C14.274,7.42338462 15.3650769,8.15907692 15.3650769,9.45461538 C15.3650769,11.5993846 12.2741538,14.3007692 7.62738462,14.3007692 C4.08323077,14.3007692 0.460153846,12.582 0.460153846,9.75461538 C0.460153846,8.27676923 1.39615385,6.56769231 3.00738462,4.95507692 C5.15953846,2.80246154 7.66892308,1.82169231 8.61276923,2.76646154 C9.02907692,3.18276923 9.06923077,3.90369231 8.80153846,4.76446154 C8.66215385,5.19784615 9.20815385,4.95784615 9.20815385,4.95876923 C10.9476923,4.23 12.4652308,4.18707692 13.02,4.98 L13.02,4.98 Z M12.426,9.41584615 C12.2427692,7.55861538 9.80123077,6.27923077 6.97246154,6.55892308 C4.14461538,6.83907692 1.99984615,8.57169231 2.18353846,10.4293846 C2.36723077,12.2875385 4.80876923,13.5664615 7.63707692,13.2872308 C10.4658462,13.0075385 12.6092308,11.2744615 12.426,9.41584615 L12.426,9.41584615 Z M5.808,12.4892308 C4.44830769,12.0498462 3.87276923,10.7067692 4.46815385,9.49661538 C5.05292308,8.31 6.57369231,7.63892308 7.91953846,7.98923077 C9.31246154,8.34923077 10.0232308,9.66415385 9.45415385,10.9407692 C8.87676923,12.2473846 7.21661538,12.9438462 5.808,12.4892308 L5.808,12.4892308 Z M6.576,9.94569231 C6.138,9.762 5.57215385,9.95076923 5.30169231,10.3749231 C5.028,10.8009231 5.15676923,11.3081538 5.59153846,11.5061538 C6.03276923,11.7078462 6.61846154,11.5163077 6.89215385,11.0796923 C7.16076923,10.6384615 7.01907692,10.1344615 6.576,9.94569231 L6.576,9.94569231 Z M7.65553846,9.498 C7.48753846,9.43107692 7.27753846,9.51184615 7.17876923,9.67753846 C7.08323077,9.84369231 7.13584615,10.0329231 7.30430769,10.1021538 C7.47553846,10.1727692 7.69430769,10.0915385 7.79307692,9.92215385 C7.88769231,9.75184615 7.82630769,9.56030769 7.65553846,9.498 L7.65553846,9.498 Z" id="Shape"></path>
                </g>
            </g>
        </g>
    </g>
</svg>